# xmcd CD database file
#
# Track frame offsets:
#	150
#	24308
#	31688
#	46918
#	67537
#	76853
#	91672
#	93007
#	102094
#	104178
#	110218
#	112102
#	120679
#	123375
#	128638
#	129694
#	135414
#	151179
#	176712
#	194997
#
# Disc length: 2656 seconds
#
# Revision: 1
# Processed by: cddbd v1.5PL3 Copyright (c) Steve Scherf et al.
# Submitted via: CDex 1.50beta10
#
DISCID=050a5e14
DTITLE=Pindakaas Saxophon Quartet - Dialog
DYEAR=1999
DGENRE=Jazz
TTITLE0=Henry Purcell - Music For A While
TTITLE1=John Dowland - What If I Never Speed
TTITLE2=John Dowland - If My Complaints Could Passions Move
TTITLE3=John Dowland - Flow My Tears
TTITLE4=John Dowland - Come Again Sweet Love Doth Now Invite
TTITLE5=Henry Purcell Cold Song (From The Opera King Arthur)
TTITLE6=Arnold Schönberg - Wenn Der Schwer Gedrückte Klagt
TTITLE7=Arnold Schönberg - Kanon Wenn Der Schwer Gedrückte Klagt
TTITLE8=Arnold Schönberg - Es Ist Zu Dumm
TTITLE9=Arnold Schönberg - Kanon Es Ist Zu Dumm
TTITLE10=Arnold Schönberg - Jedem Geht Es So
TTITLE11=Arnold Schönberg - Kanon Jedem Geht Es So
TTITLE12=Arnold Schönberg - Life Begins At Sixty
TTITLE13=Arnold Schönberg - Kanon Leben Beginnt Mit Sechzig (2 Vaiationen)
TTITLE14=Arnold Schönberg - Von Meinen Steinen
TTITLE15=Arnold Schönberg - Kanon Von Meinen Steinen
TTITLE16=Schtiller Schtiller
TTITLE17=Songs Of Jewish Life
TTITLE18=Play The Klezmer
TTITLE19=Wir Leben Ejbig
EXTD=YEAR: 1999
EXTT0=
EXTT1=
EXTT2=
EXTT3=
EXTT4=
EXTT5=
EXTT6=
EXTT7=
EXTT8=
EXTT9=
EXTT10=
EXTT11=
EXTT12=
EXTT13=
EXTT14=
EXTT15=
EXTT16=
EXTT17=
EXTT18=
EXTT19=
PLAYORDER=
